<?xml version="1.0" encoding="UTF-8" standalone="no"?>
<!-- Created with Inkscape (http://www.inkscape.org/) -->
<svg
   xmlns:svg="http://www.w3.org/2000/svg"
   xmlns="http://www.w3.org/2000/svg"
   version="1.0"
   width="351.52148"
   height="235.52995"
   id="svg3035">
  <defs
     id="defs3037" />
  <g
     transform="translate(230.04646,-197.45435)"
     id="layer1">
    <g
       transform="translate(-855.80577,50.944919)"
       id="g7752">
      <path
         d="M 880.70898,146.70033 C 863.67522,144.54482 853.89505,161.09136 846.62874,173.7051 C 837.59024,192.37766 809.9722,178.9434 798.2925,195.79909 C 783.85587,199.87394 767.47974,186.06199 754.37681,199.16279 C 737.6267,197.38016 718.48885,203.62834 704.91832,191.61294 C 691.25691,179.61159 671.11925,177.93607 654.84017,185.13579 C 636.30736,193.35181 625.08741,213.43672 625.79053,233.38629 C 625.39456,250.02611 644.1545,261.81373 638.23586,279.24927 C 638.33002,297.301 651.75583,315.36065 670.08094,318.05466 C 668.7157,347.42723 703.97802,371.52683 730.58831,358.15492 C 740.7736,368.2071 750.06527,381.67434 766.10778,381.57019 C 784.64451,385.21703 795.20946,366.41019 812.73282,366.33078 C 828.15358,362.74894 838.48639,349.31578 854.78003,358.51231 C 872.90561,362.72793 891.8185,354.90531 902.65966,340.04688 C 913.04008,332.20548 928.78998,337.4222 938.43041,326.50513 C 947.35446,319.32983 953.5651,308.40692 953.82897,296.82563 C 984.37788,284.04735 985.60317,232.89518 954.43357,220.12664 C 943.21761,208.18004 940.42962,190.49196 926.59842,180.27723 C 915.17596,165.54058 901.65944,146.01191 880.70898,146.70033 z"
         id="path5702"
         style="opacity:1;fill:#000000;fill-opacity:0.33333333;fill-rule:evenodd;stroke:none;stroke-width:1.24399996;stroke-linecap:round;stroke-linejoin:round;stroke-miterlimit:4;stroke-dasharray:none;stroke-dashoffset:0;stroke-opacity:1" />
      <path
         d="M 876.45459,152.07053 C 862.33905,152.07053 850.87961,163.52997 850.87962,177.64551 C 850.87962,179.31925 851.0528,180.9479 851.36027,182.53219 C 850.99187,182.50982 850.61273,182.49213 850.23874,182.49213 C 843.4109,182.49213 837.46795,186.28355 834.37705,191.86495 C 830.66466,190.41845 826.62286,189.62188 822.40067,189.62188 C 808.63979,189.62188 796.83572,198.05357 791.87893,210.02979 C 786.36169,203.11491 777.8741,198.67426 768.34675,198.67426 C 758.77324,198.67426 750.24936,203.15742 744.73446,210.12993 C 739.78833,205.82533 733.33609,203.22048 726.26921,203.22048 C 718.89147,203.22048 712.18577,206.06273 707.16308,210.71072 C 701.02405,196.40381 686.81912,186.37744 670.27264,186.37745 C 648.1166,186.37745 630.13775,204.3563 630.13775,226.51233 C 630.13775,240.17376 636.96504,252.247 647.40136,259.49744 C 644.26758,264.24703 642.43456,269.92805 642.43457,276.04006 C 642.43457,292.65708 655.91871,306.14122 672.53573,306.14122 C 673.41237,306.14122 674.28159,306.0946 675.13929,306.02106 C 674.49763,308.65521 674.15795,311.40153 674.15795,314.23229 C 674.15795,333.35079 689.66679,348.87967 708.7853,348.87967 C 718.85513,348.87967 727.92977,344.57259 734.26014,337.70438 C 734.30748,337.71839 734.35284,337.73078 734.40033,337.74444 C 734.37842,338.21275 734.36028,338.69269 734.36028,339.16638 C 734.36028,355.60473 747.70266,368.94711 764.141,368.94711 C 774.80218,368.94711 784.15439,363.33663 789.41556,354.90791 C 791.41893,355.18524 793.46468,355.34851 795.54395,355.34851 C 810.39207,355.34851 823.52331,348.01778 831.57322,336.80315 C 838.7077,343.10315 848.07082,346.93702 858.3298,346.93701 C 875.63577,346.93701 890.42357,336.0522 896.20159,320.76121 C 899.81302,322.19152 903.73913,322.98425 907.85753,322.98425 C 925.36795,322.98425 939.58091,308.77129 939.58091,291.26087 C 939.58091,289.86901 939.49466,288.49995 939.32056,287.15526 C 953.33763,282.84093 963.53367,269.77666 963.53367,254.3504 C 963.53367,236.71115 950.203,222.17807 933.07201,220.26378 C 933.51395,218.31951 933.75294,216.29294 933.75294,214.21551 C 933.75294,202.13244 925.85658,191.89739 914.94723,188.36016 C 914.45413,178.80131 908.35009,170.72472 899.8666,167.35143 C 895.90352,158.35709 886.90896,152.07053 876.45459,152.07053 z"
         id="path5643"
         style="opacity:1;fill:#ffffff;fill-opacity:1;fill-rule:evenodd;stroke:none;stroke-width:1.24399996;stroke-linecap:round;stroke-linejoin:round;stroke-miterlimit:4;stroke-dasharray:none;stroke-dashoffset:0;stroke-opacity:1" />
    </g>
  </g>
</svg>
