<?xml version="1.0" encoding="UTF-8" standalone="no"?>
<!-- Created with Inkscape (http://www.inkscape.org/) -->
<svg
   xmlns:svg="http://www.w3.org/2000/svg"
   xmlns="http://www.w3.org/2000/svg"
   version="1.0"
   width="368.47278"
   height="228.29573"
   id="svg3002">
  <defs
     id="defs3004" />
  <g
     transform="translate(92.807813,56.07139)"
     id="layer1">
    <g
       transform="translate(-148.68521,-107.32034)"
       id="g7748">
      <path
         d="M 291.13106,51.258577 C 271.54487,51.198747 252.32343,60.986967 240.51204,76.550947 C 224.45784,69.358327 209.17634,86.314797 196.17547,83.194037 C 178.2677,75.860407 156.50692,79.801927 141.94898,92.429407 C 125.58234,96.027517 109.14604,95.006917 92.902282,99.123037 C 73.256811,106.43705 62.569488,130.41983 71.406463,149.70472 C 73.486006,159.63403 54.971975,168.32935 56.585906,182.08679 C 52.428734,202.89454 67.078377,223.52543 87.09456,229.02532 C 87.04556,251.48261 110.96301,271.17819 132.98091,265.00049 C 148.62531,282.58851 179.22557,284.76464 196.92343,268.56715 C 215.8439,271.08447 228.19102,251.51491 241.73848,247.11102 C 258.58838,251.25702 272.26957,230.84611 286.28212,244.37039 C 302.24312,250.16638 318.10689,244.3073 331.42033,256.42572 C 356.20864,265.98879 388.86335,253.30091 396.048,226.53964 C 403.70706,214.57801 420.66981,208.51619 422.72723,192.03668 C 427.23847,176.98406 422.12724,159.95367 410.09948,149.83879 C 417.6269,129.61119 399.84724,113.46795 389.2749,101.1886 C 383.51047,78.843447 358.56285,63.149767 335.95427,68.628857 C 324.06112,57.255507 307.55942,50.968257 291.13106,51.258577 z"
         id="path4718"
         style="opacity:1;fill:#000000;fill-opacity:0.33333333;fill-rule:evenodd;stroke:none;stroke-width:1.24399996;stroke-linecap:round;stroke-linejoin:round;stroke-miterlimit:4;stroke-dasharray:none;stroke-dashoffset:0;stroke-opacity:1" />
      <path
         d="M 286.86267,57.295317 C 266.70848,57.295317 249.07045,68.102747 239.41591,84.233827 C 235.18277,82.536807 230.56954,81.593137 225.73231,81.593137 C 214.49326,81.593137 204.42157,86.648067 197.66208,94.590837 C 190.50893,88.918287 181.46405,85.519887 171.63238,85.519887 C 159.14562,85.519887 147.93748,90.997827 140.2527,99.666457 C 137.85685,98.883297 135.29563,98.448997 132.63927,98.448997 C 125.90442,98.448997 119.80155,101.17863 115.37187,105.5823 C 111.38074,103.53383 106.85739,102.37575 102.06551,102.37575 C 85.947382,102.37575 72.863552,115.45958 72.863552,131.57771 C 72.863552,140.68835 77.052846,148.82176 83.597803,154.17794 C 70.166867,158.03105 60.328826,170.41342 60.328828,185.07749 C 60.328828,202.81825 74.722229,217.21165 92.462991,217.21165 C 92.554402,217.21165 92.64612,217.21242 92.737349,217.21165 C 92.058001,219.64544 91.69136,222.20984 91.69136,224.85938 C 91.69136,240.54481 104.41911,253.27257 120.10454,253.27256 C 124.25462,253.27256 128.19233,252.37032 131.7476,250.76905 C 138.20213,260.53073 149.27078,266.99046 161.84123,266.99046 C 172.24455,266.99046 181.61342,262.57383 188.19673,255.51887 C 189.0734,255.57695 189.94613,255.62175 190.83742,255.62175 C 207.09771,255.62175 221.06564,245.7989 227.15555,231.76977 C 231.37407,233.48958 235.98761,234.4619 240.822,234.4619 C 252.12315,234.4619 262.20742,229.26857 268.85794,221.15555 C 276.54137,229.79243 287.74288,235.23354 300.20332,235.23353 C 304.99864,235.23353 309.59413,234.41992 313.88692,232.93579 C 321.29217,241.54066 332.24326,246.99663 344.47782,246.99663 C 365.72051,246.99663 383.15731,230.55794 384.73984,209.71825 C 399.1689,206.38964 409.94647,193.44827 409.94646,178.01278 C 409.94646,165.91239 403.31327,155.35776 393.50214,149.75392 C 395.73622,145.76615 397.00021,141.16914 397.0002,136.27609 C 397.0002,123.39365 388.16894,112.54756 376.23474,109.4919 C 376.16065,89.758877 360.11276,73.756787 340.36245,73.756787 C 336.08362,73.756787 331.99358,74.506437 328.18782,75.883067 C 318.06233,64.488107 303.29382,57.295317 286.86267,57.295317 z M 122.64235,196.13754 C 122.89783,196.30492 123.15399,196.47391 123.41398,196.63481 C 123.10693,196.59907 122.79798,196.57494 122.48803,196.54908 C 122.54042,196.41224 122.59178,196.27526 122.64235,196.13754 z"
         id="path4671"
         style="opacity:1;fill:#ffffff;fill-opacity:1;fill-rule:evenodd;stroke:none;stroke-width:1.24399996;stroke-linecap:round;stroke-linejoin:round;stroke-miterlimit:4;stroke-dasharray:none;stroke-dashoffset:0;stroke-opacity:1" />
    </g>
  </g>
</svg>
