<?xml version="1.0" encoding="UTF-8" standalone="no"?>
<!-- Created with Inkscape (http://www.inkscape.org/) -->
<svg
   xmlns:svg="http://www.w3.org/2000/svg"
   xmlns="http://www.w3.org/2000/svg"
   xmlns:xlink="http://www.w3.org/1999/xlink"
   xmlns:inkscape="http://www.inkscape.org/namespaces/inkscape"
   version="1.0"
   width="1024"
   height="235"
   id="svg2929">
  <defs
     id="defs2931">
    <filter
       id="filter7738"
       x="-0.062413666"
       width="1.1248273"
       y="-0.18633226"
       height="1.3726645">
      <feGaussianBlur
         inkscape:collect="always"
         stdDeviation="1.0592616"
         id="feGaussianBlur7740" />
    </filter>
    <filter
       id="filter7556"
       x="-0.10906329"
       width="1.2181267"
       y="-0.16048753"
       height="1.3209751">
      <feGaussianBlur
         inkscape:collect="always"
         stdDeviation="3.7122331"
         id="feGaussianBlur7558" />
    </filter>
    <linearGradient
       id="linearGradient7756">
      <stop
         id="stop7758"
         style="stop-color:#7fa43c;stop-opacity:1"
         offset="0" />
      <stop
         id="stop7760"
         style="stop-color:#303a26;stop-opacity:1"
         offset="1" />
    </linearGradient>
    <linearGradient
       x1="688.78198"
       y1="535.625"
       x2="703.93427"
       y2="746.07819"
       id="linearGradient2891"
       xlink:href="#linearGradient7756"
       gradientUnits="userSpaceOnUse" />
    <linearGradient
       id="linearGradient7618">
      <stop
         id="stop7620"
         style="stop-color:#000000;stop-opacity:1"
         offset="0" />
      <stop
         id="stop7622"
         style="stop-color:#ab8858;stop-opacity:1"
         offset="1" />
    </linearGradient>
    <linearGradient
       x1="538.11664"
       y1="707.9931"
       x2="538.11664"
       y2="789.8609"
       id="linearGradient2889"
       xlink:href="#linearGradient7618"
       gradientUnits="userSpaceOnUse" />
    <linearGradient
       id="linearGradient7825">
      <stop
         id="stop7827"
         style="stop-color:#57663b;stop-opacity:1"
         offset="0" />
      <stop
         id="stop7829"
         style="stop-color:#303a26;stop-opacity:1"
         offset="1" />
    </linearGradient>
    <linearGradient
       x1="368.57141"
       y1="79.610039"
       x2="368.57141"
       y2="731.86987"
       id="linearGradient2887"
       xlink:href="#linearGradient7825"
       gradientUnits="userSpaceOnUse" />
  </defs>
  <g
     transform="translate(452,7.99496)"
     id="layer1">
    <g
       transform="translate(-452,-543.61996)"
       id="g2859">
      <path
         d="M 253.46875,640.34375 C 216.73952,640.47975 224.72406,662.10305 0,687 L 0,768 L 1024,768 L 1024,679.15625 C 924.26288,696.95458 741.22186,688.24844 734.28125,691.71875 C 725.70983,696.00446 504.29911,680.29017 337.15625,651.71875 C 290.14732,643.68304 268.19789,640.28921 253.46875,640.34375 z"
         id="path7812"
         style="fill:url(#linearGradient2887);fill-opacity:1;fill-rule:evenodd;stroke:none;stroke-width:1px;stroke-linecap:butt;stroke-linejoin:miter;stroke-opacity:1" />
      <rect
         width="1024"
         height="62.624355"
         x="0"
         y="708"
         id="rect6150"
         style="fill:url(#linearGradient2889);fill-opacity:1;fill-rule:evenodd;stroke:none;stroke-width:2;stroke-linecap:round;stroke-linejoin:round;stroke-miterlimit:4;stroke-dasharray:none;stroke-dashoffset:0;stroke-opacity:1" />
      <path
         d="M 33.53125,730.5625 C 31.384951,730.70263 27.426368,732.41909 24.25,731.625 C 21.82413,731.13982 11.941508,752.98246 4.4375,770.625 L 107.84375,770.625 C 108.01953,762.99059 107.0625,754.55613 107.0625,751.84375 C 107.0625,736.44119 79.57883,747.69869 72.71875,752.84375 C 69.788927,755.04111 56.25003,737.72658 53.53125,735.6875 C 48.576212,731.97123 40.489153,732.16135 34.34375,730.625 C 34.119618,730.56896 33.837864,730.54248 33.53125,730.5625 z M 972.4375,736.5 C 963.97938,736.32887 944.29367,755.03771 938.3125,770.625 L 1024,770.625 L 1024,752.5625 C 1015.1211,748.73109 1001.2462,752.64351 992.28125,754.34375 C 979.36093,756.79415 978.12838,750.17125 976.1875,739.9375 C 975.74553,737.60712 974.39351,736.53958 972.4375,736.5 z M 330.8125,745.75 C 319.31883,745.86454 317.92556,760.9702 332.46875,768.53125 C 333.59079,769.11461 335.00212,769.83864 336.5,770.625 L 383.5,770.625 C 383.75283,770.22885 383.99218,769.84444 384.1875,769.46875 C 390.80243,756.74536 365.42929,754.57957 358.03125,752.8125 C 348.85858,750.62154 347.48331,749.25948 339.59375,747.375 C 337.95623,746.98388 336.32502,746.60988 334.6875,746.21875 C 333.28846,745.88458 332.0015,745.73815 330.8125,745.75 z M 158.84375,748.3125 C 153.12637,748.32789 145.1794,751.5062 139.09375,749.28125 C 135.35924,747.9159 125.1018,757.33602 122.84375,758.96875 C 119.01753,761.73538 117.08957,766.48409 115.46875,770.625 L 171.65625,770.625 C 174.81467,768.65666 177.52545,766.88994 178.5625,765.75 C 182.65847,761.24762 164.0232,749.11244 161.15625,748.5 C 160.44244,748.34752 159.66052,748.3103 158.84375,748.3125 z M 651.78125,750.3125 C 648.07403,750.26978 638.16274,751.59245 638,751.625 C 637.60123,751.62502 631.0566,768.4776 630.03125,770.625 L 670.375,770.625 C 673.7856,766.60959 669.8261,767.40184 659.21875,764.75 C 651.21234,762.74838 653.15625,758.75253 653.15625,750.59375 C 653.15625,750.40936 652.63676,750.32236 651.78125,750.3125 z M 920.9375,750.78125 C 919.75087,750.85285 918.25324,751.28252 916.375,752.15625 C 905.96675,756.99801 899.25942,761.56224 893.9375,770.625 L 924.65625,770.625 C 924.58904,769.13244 924.5198,767.71789 924.53125,767.3125 C 924.725,760.45401 927.34531,750.39463 920.9375,750.78125 z M 417.90625,750.8125 C 416.76441,750.8892 415.13135,751.55869 412.15625,753.34375 C 410.15021,756.1751 398.23696,760.05253 392.9375,764.46875 C 391.20908,765.90909 391.04464,768.19759 391.5625,770.625 L 448,770.625 C 453.29231,765.85111 459.23586,759.76135 464.65625,758.40625 C 466.07382,758.05185 449.25311,755.47624 446.5,754.375 C 441.28078,752.28733 433.232,753.34375 427.28125,753.34375 C 420.51886,753.34375 420.41831,750.64376 417.90625,750.8125 z"
         id="path7762"
         style="fill:#878787;fill-opacity:0.80476188;fill-rule:evenodd;stroke:none;stroke-width:1px;stroke-linecap:butt;stroke-linejoin:miter;stroke-opacity:1" />
      <path
         d="M 22.5,535.625 C 21.6669,537.87898 20.97295,540.86098 20.34375,544.84375 C 19.69805,548.82653 18.9927,554.95148 18.75,559.21875 C 18.5018,563.3985 18.8548,565.95473 18.9375,569.9375 C 19.0258,573.8984 19.2668,578.6866 19.25,582.625 C 19.184001,586.47647 18.9356,589.7581 18.6875,593.0625 C 18.6311,593.7427 18.5743,594.35564 18.5,594.9375 C 18.3645,594.04974 18.2032,593.20131 18.0625,592.40625 C 16.892799,585.92878 15.6883,582.62302 14.375,579.625 C 13.0728,576.62699 11.70495,574.91579 10.28125,574.5 C 10.75025,578.57093 11.20925,582.32988 11.65625,585.875 C 12.10865,589.4432 12.8381,592.95584 12.9375,595.625 C 13.0092,598.16467 12.20055,599.31548 12.15625,601.21875 C 12.10665,603.10073 12.33615,604.72415 12.65625,607 C 12.95965,609.25461 13.85465,612.31789 14.03125,614.59375 C 14.19685,616.7383 13.94865,616.99252 13.65625,620.1875 C 13.49135,621.88044 13.2109,624.20685 12.9375,626.75 C 12.6395,627.88512 12.3818,629.03698 12.125,630.15625 C 11.1693,634.30819 10.49885,637.78162 9.71875,643.09375 C 9.6450499,639.53265 9.44805,635.51134 9.09375,630.875 C 8.5475503,623.80725 7.59795,614.48062 6.59375,606.40625 C 5.5728501,598.28808 4.4605,590.52115 3.125,582.6875 C 2.954,584.00048 2.86025,588.32147 2.84375,595.9375 C 2.8326499,603.55231 2.8307,618.16999 3.0625,628.0625 C 3.0842,628.99992 3.0997,629.84252 3.125,630.75 C 2.9102,630.52999 2.69455,630.40625 2.46875,630.40625 C 1.5187707,630.40624 0.6590894,632.46412 0,635.8125 L 0,699.0625 C 0.048239524,701.35273 0.098863465,703.65585 0.125,706 L 0,706 L 0,723.375 L 0,733.25 C 1.6436059,735.31905 3.8682696,737.04866 7.0625,737.6875 C 13.389822,738.95296 19.716131,738.71875 26.25,738.71875 C 33.376647,738.71876 37.727035,736.83456 42.4375,738.71875 C 48.160861,741.0081 50.241822,742.75 57.59375,742.75 C 63.747088,742.74997 71.11755,742.90812 75.75,741.75 C 76.631004,741.52976 86.753512,741.75 91.9375,741.75 C 100.58142,741.75001 103.1829,741.75 111.125,741.75 C 118.61861,741.75001 122.0342,741.75 130.3125,741.75 C 138.44791,741.75001 143.94375,742.23625 151.53125,740.71875 C 154.48688,740.12762 161.91742,738.71875 166.6875,738.71875 C 172.08004,738.71876 177.81483,739.46152 182.84375,740.71875 C 195.20025,743.80787 209.77063,745.78125 222.21875,745.78125 C 233.86088,745.78128 240.00717,748.41228 250.53125,745.78125 C 262.85337,742.70075 272.47612,738.5294 283.84375,735.6875 C 289.71449,734.21982 298.48623,734.55124 303.03125,735.6875 C 309.09309,737.20296 315.97167,736.11792 322.25,737.6875 C 328.08321,739.14579 336.36302,737.6875 342.4375,737.6875 C 350.04837,737.68749 358.40543,737.6875 365.6875,737.6875 C 372.4714,737.68749 376.89878,737.42374 383.84375,735.6875 C 391.89738,733.6741 392.21733,734.65625 400.03125,734.65625 C 406.62116,734.65624 412.50983,734.65625 419.21875,734.65625 C 425.35693,734.65624 433.14979,734.37338 438.40625,735.6875 C 442.92043,736.81605 448.16707,736.34183 451.53125,737.6875 C 456.37803,739.6262 466.27616,739.71875 468.71875,739.71875 C 474.89479,739.71872 481.34163,739.83167 486.90625,738.71875 C 492.55533,737.58894 499.04411,737.6875 502.03125,737.6875 C 508.72902,737.68749 514.21132,738.21689 520.21875,739.71875 C 525.85459,741.12768 531.22444,738.71875 537.40625,738.71875 C 543.14037,738.71876 548.67633,738.71875 555.59375,738.71875 C 560.51979,738.71876 567.97126,740.71875 574.78125,740.71875 C 579.99256,740.71874 587.03955,738.91199 591.9375,737.6875 C 599.27203,735.85386 604.82376,737.39344 610.125,738.71875 C 615.43724,740.04682 621.76884,742.36408 627.3125,743.75 C 635.20236,745.72246 640.60647,742.36338 642.46875,749.8125 C 645.27218,761.02626 650.92233,756.51517 655.59375,751.84375 C 660.3616,747.07588 665.12404,745.00038 670.75,742.75 C 674.35082,741.30965 679.38104,747.8125 684.875,747.8125 C 691.11616,747.81251 694.15666,746.43758 701.03125,747.8125 C 707.08924,749.02411 714.72433,744.13142 720.25,742.75 C 726.3027,741.23679 731.80886,741.75 738.40625,741.75 C 746.67377,741.75001 751.93916,738.53948 760.65625,740.71875 C 766.85899,742.26943 775.46713,740.71875 781.84375,740.71875 C 788.59466,740.71874 794.72159,739.71875 801.0625,739.71875 C 806.47381,739.71872 813.92077,739.39426 819.21875,740.71875 C 822.77635,741.60814 834.09042,740.38191 837.40625,739.71875 C 843.88698,738.42258 850.41387,738.23247 856.59375,736.6875 C 861.95901,735.34621 869.15084,738.31115 874.78125,739.71875 C 878.11444,740.55202 887.5606,738.71875 891.96875,738.71875 C 898.40821,738.71876 905.35045,738.2673 911.15625,739.71875 C 917.79503,741.37841 924.3962,739.71875 930.34375,739.71875 C 935.91597,739.71872 941.5577,739.71875 948.53125,739.71875 C 954.78112,739.71872 962.79106,739.71875 967.71875,739.71875 C 973.98437,739.71872 980.44688,741.75 986.90625,741.75 C 993.61031,741.75001 998.7446,742.6416 1004.0938,744.78125 C 1008.5448,746.56174 1018.7827,745.39809 1021.25,744.78125 C 1022.2407,744.53357 1023.1374,744.32085 1024,744.09375 L 1024,590.6875 C 1023.0205,593.21549 1022.0842,596.31569 1021.1875,601.28125 C 1020.3388,606.07725 1019.6075,612.76174 1018.8438,619.65625 C 1018.6439,616.68557 1018.4211,613.83578 1018.1562,610.84375 C 1017.5661,604.13899 1016.9529,597.86527 1015.9375,591.90625 C 1014.8945,585.85497 1013.4127,579.47224 1012,575.4375 C 1010.5653,571.52778 1008.9292,569.77142 1007.5,568.34375 C 1006.2592,567.01307 1005.0972,566.35872 1004,566.40625 C 1003.8433,566.41305 1003.6852,566.43383 1003.5312,566.46875 C 1004.8172,570.31814 1006.0966,575.80102 1007.4375,583.21875 C 1008.7839,590.57615 1010.549,599.79348 1011.5312,610.53125 C 1012.4749,621.27074 1012.8288,634.02676 1013.1875,647.125 C 1013.2417,649.18898 1013.2679,651.25935 1013.3125,653.34375 C 1013.0684,649.77914 1012.8488,645.91536 1012.5,643.21875 C 1011.9852,639.24668 1011.2736,637.61473 1010.6562,634.46875 C 1010.044,631.21216 1009.3987,627.97673 1008.9062,624.15625 C 1008.4539,620.24392 1008.1633,615.47755 1007.8125,611.53125 C 1007.4536,607.5638 1007.5219,604.97031 1006.8125,600.84375 C 1006.0987,596.62958 1004.739,590.63678 1003.6562,586.75 C 1002.5902,582.86137 1001.5462,579.96038 1000.4688,577.8125 C 1000.8676,580.69655 1001.3531,584.33252 1001.9375,588.78125 C 1002.533,593.22879 1003.3232,598.41734 1003.9688,604.3125 C 1004.6209,610.11882 1005.5448,618.24547 1005.75,623.375 C 1005.9289,628.41939 1005.243,630.4999 1005.1562,634.40625 C 1005.1038,638.22201 1005.1904,641.38234 1005.4062,646.3125 C 1005.6139,651.26501 1005.9665,658.20623 1006.4062,663.75 C 1006.8624,669.13845 1007.0599,673.10192 1008.0938,678.84375 C 1009.1549,684.5825 1011.1427,691.93671 1012.6562,698 C 1013.3571,700.79996 1014.0357,703.43009 1014.7188,706 L 990.875,706 C 991.25185,700.80373 991.79719,696.20905 992.3125,690.9375 C 992.88077,685.16027 993.7203,678.76523 994.0625,673.25 C 994.39909,667.71413 994.5553,663.46139 994.3125,658.1875 C 994.08067,652.82605 993.24845,646.84569 992.71875,641.8125 C 992.21654,636.75741 991.59035,631.48499 991.28125,628.3125 C 990.98888,625.1175 990.74075,624.83207 990.90625,622.6875 C 991.08288,620.41162 991.97785,617.37959 992.28125,615.125 C 992.60138,612.84911 992.83085,611.19447 992.78125,609.3125 C 992.73703,607.40926 991.9282,606.25844 992,603.71875 C 992.0992,601.04959 992.82875,597.56821 993.28125,594 C 993.72828,590.45493 994.18715,586.69592 994.65625,582.625 C 993.23256,583.04075 991.89605,584.72072 990.59375,587.71875 C 989.28054,590.71675 988.0448,594.02252 986.875,600.5 C 985.73272,606.95498 984.78395,616.70076 983.71875,626 C 982.65933,635.23542 981.13275,646.80039 980.53125,655.53125 C 979.94085,664.13143 980.022,668.36954 980.1875,677.625 C 980.35327,685.41013 980.8848,697.4684 981.34375,706 L 977.65625,706 C 977.96846,702.03008 978.13654,698.12115 978.15625,694.1875 C 978.19486,686.46326 976.9451,677.47339 976.625,671.9375 C 976.34931,666.40038 976.3365,665.64227 976.375,661.375 C 976.42473,657.02019 976.91535,650.42344 976.84375,646.375 C 976.77182,642.37037 976.2025,640.63248 975.9375,637.4375 C 975.68933,634.13308 975.4411,630.85148 975.375,627 C 975.35843,623.0616 975.5993,618.27339 975.6875,614.3125 C 975.7702,610.32973 976.1231,607.77348 975.875,603.59375 C 975.63208,599.32646 974.92705,593.20153 974.28125,589.21875 C 973.65213,585.23599 972.9581,582.25399 972.125,580 C 972.2023,582.91051 972.2867,586.54516 972.375,591.03125 C 972.47428,595.51735 972.66735,600.78834 972.65625,606.71875 C 972.66164,612.5616 972.70785,620.75429 972.34375,625.875 C 971.96307,630.90817 971.0186,632.87726 970.5,636.75 C 970.02511,640.53645 969.7688,643.70123 969.4375,648.625 C 969.09543,653.57007 968.6768,660.50412 968.5,666.0625 C 968.35652,671.46835 968.1084,675.42902 968.5,681.25 C 968.91942,687.071 970.07315,694.61889 970.90625,700.8125 C 971.1506,702.62198 971.40927,704.28116 971.65625,706 L 964.71875,706 C 964.72878,705.48041 964.74141,704.92168 964.75,704.40625 C 964.8492,697.71051 964.87145,691.57711 964.65625,686.0625 C 964.41345,680.50348 963.9599,676.28616 963.375,671.625 C 962.78462,666.8976 962.2029,662.48285 961.1875,658.28125 C 960.14461,654.0146 958.69385,649.50109 957.28125,646.65625 C 955.84657,643.89953 954.14795,642.66289 952.71875,641.65625 C 951.47783,640.71799 950.3472,640.27899 949.25,640.3125 C 949.09333,640.31728 948.93505,640.31913 948.78125,640.34375 C 948.94428,640.6878 949.0868,641.05645 949.25,641.4375 C 949.25738,641.44769 949.27385,641.45835 949.28125,641.46875 C 950.40045,644.08977 951.5223,647.61117 952.6875,652.15625 C 954.03392,657.34382 955.79895,663.83523 956.78125,671.40625 C 957.72484,678.9785 958.0788,687.95211 958.4375,697.1875 C 958.54525,700.08246 958.61994,703.03805 958.6875,706 L 949.03125,706 C 949.02075,697.71887 949.00206,686.84149 948.71875,678.8125 C 948.39494,668.95736 947.70985,660.03312 947.09375,653.1875 C 946.50194,646.29809 945.94625,642.57052 945.09375,637.75 C 944.22926,632.84122 942.86325,627.44795 941.96875,624.3125 C 941.10066,621.20092 940.4564,619.42711 939.9375,619.09375 C 939.91758,618.983 939.8918,618.93628 939.875,618.9375 C 939.7576,618.94605 939.7142,621.71996 939.75,627.53125 C 939.79629,634.17299 939.84885,649.98621 940.15625,658.4375 C 940.48026,666.78008 940.9465,671.48585 941.625,677.4375 C 942.34002,683.32407 943.5855,687.68084 944.3125,693.65625 C 944.78108,697.36468 945.15187,701.8238 945.46875,706 L 934.03125,706 C 934.25862,704.1973 934.49094,702.39579 934.71875,700.59375 C 934.92063,698.76455 935.0653,696.68269 935.125,694.40625 C 935.15609,695.69094 935.1653,696.81122 935.125,697.5625 C 935.25189,696.97104 935.3676,696.39399 935.5,695.78125 C 935.57731,691.14138 935.4103,685.44141 934.875,678.4375 C 934.32871,671.36977 933.34805,662.01187 932.34375,653.9375 C 931.32293,645.81938 930.2104,638.05239 928.875,630.21875 C 928.70388,631.53171 928.61025,635.88397 928.59375,643.5 C 928.58263,651.11481 928.5807,665.73249 928.8125,675.625 C 929.03869,685.42815 929.47205,693.45918 929.96875,702.125 C 930.04176,703.45168 930.14119,704.69844 930.21875,706 L 923.65625,706 C 923.97628,702.90169 924.3309,700.48178 924.53125,697.375 C 924.79655,693.17559 925.16125,689.43374 924.90625,684.53125 C 924.60826,679.57128 923.91035,674.09016 922.78125,667.875 C 922.10475,669.55965 921.33335,670.85403 920.46875,672 C 919.59296,673.12509 918.60425,674.23396 917.59375,674.46875 C 916.55586,674.59638 914.9574,672.59844 914.375,673.0625 C 913.78189,673.57445 913.9789,675.59863 914.0625,677.40625 C 914.1138,679.13113 914.75825,681.78265 914.71875,683.53125 C 914.63064,685.22444 914.12865,686.5673 913.71875,687.6875 C 913.31954,688.80561 912.87265,689.57617 912.34375,690.09375 C 912.45373,690.63016 912.5728,691.19456 912.6875,691.75 C 912.51079,692.3387 912.3387,692.91814 912.25,693.53125 C 911.79529,696.64912 911.80965,699.71848 912.28125,703.03125 C 912.50197,704.01919 912.71695,705.01183 912.9375,706 L 908.65625,706 C 908.42442,704.09234 908.19602,702.22281 907.9375,700.4375 C 906.79897,692.4937 905.48805,686.16259 903.90625,681.0625 C 902.81317,688.13457 901.98345,695.36007 901.40625,703.28125 C 901.34192,704.18043 901.30731,705.09636 901.25,706 L 713.40625,706 C 713.48067,701.07834 713.57455,696.27633 713.75,691.5625 C 714.10873,682.32712 714.494,673.35352 715.4375,665.78125 C 716.41978,658.2102 718.1536,651.71883 719.5,646.53125 C 720.84091,641.30112 722.12065,637.4329 723.40625,634.71875 C 722.17575,634.52179 720.8557,634.95896 719.4375,636.03125 C 718.00827,637.03792 716.3722,638.27455 714.9375,641.03125 C 713.95521,643.00941 712.90375,645.81015 712.03125,648.75 C 711.57757,645.0426 711.11195,641.34766 710.84375,639.03125 C 710.55132,636.34248 710.30325,636.1173 710.46875,634.3125 C 710.64542,632.39721 711.54035,629.83489 711.84375,627.9375 C 712.16382,626.02222 712.39345,624.64631 712.34375,623.0625 C 712.29963,621.46078 711.4908,620.48108 711.5625,618.34375 C 711.66182,616.09751 712.39125,613.15914 712.84375,610.15625 C 713.29077,607.17277 713.74975,603.98847 714.21875,600.5625 C 712.79512,600.91244 711.4273,602.38321 710.125,604.90625 C 708.81168,607.42931 707.6072,610.20501 706.4375,615.65625 C 705.55611,619.84752 704.7949,625.73884 704,631.78125 C 703.72407,628.11749 703.4304,624.39914 703.1875,621.09375 C 702.50538,611.79454 701.88785,602.04874 701.15625,595.59375 C 700.40722,589.11627 699.62245,585.81053 698.78125,582.8125 C 697.94722,579.81447 697.0992,578.10327 696.1875,577.6875 C 696.4879,581.7584 696.7762,585.51741 697.0625,589.0625 C 697.35227,592.63074 697.8115,596.14336 697.875,598.8125 C 697.92088,601.35221 697.4033,602.503 697.375,604.40625 C 697.34321,606.28819 697.4826,607.91161 697.6875,610.1875 C 697.88187,612.44209 698.4495,615.50537 698.5625,617.78125 C 698.66851,619.92583 698.53105,620.18003 698.34375,623.375 C 698.17433,626.09035 697.8498,630.62456 697.5625,634.96875 C 697.4626,634.19202 697.36435,633.3944 697.28125,632.5625 C 696.98926,629.12826 696.90775,624.93215 696.71875,621.46875 C 696.52255,617.98681 696.69555,615.71742 696.15625,612.09375 C 695.61603,608.39322 694.4839,603.13441 693.5625,599.71875 C 692.65772,596.30159 691.7371,593.73421 690.75,591.84375 C 691.03048,594.37574 691.37965,597.56326 691.78125,601.46875 C 692.19374,605.37327 692.75245,609.91925 693.15625,615.09375 C 693.57026,620.19037 694.1919,627.34346 694.1875,631.84375 C 694.17061,634.59989 693.854,636.34648 693.5625,638.09375 C 693.53082,638.03643 693.50045,637.96134 693.46875,637.90625 C 692.90957,633.34771 692.4159,630.12395 691.75,626.21875 C 690.85883,620.97753 689.58985,615.20979 688.78125,611.875 C 687.99236,608.56481 687.4449,606.71345 687.0625,606.375 C 686.89961,605.42926 686.99005,608.27206 687.40625,615.40625 C 687.63736,619.33227 688.04065,626.22089 688.46875,633.15625 C 688.23092,634.39091 687.9416,635.47515 687.625,636.4375 C 687.16483,637.78582 686.6117,639.12259 686,639.4375 C 685.87878,639.47387 685.74315,639.38554 685.59375,639.28125 C 684.57457,633.67601 683.505,628.20186 682.3125,622.6875 C 682.19943,624.00676 682.33685,628.32816 682.65625,635.9375 C 682.89436,641.51484 683.29513,650.83255 683.75,659.3125 C 683.31725,660.53438 682.82592,661.58916 682.25,662.53125 C 681.99844,662.92886 681.71751,663.32389 681.4375,663.6875 C 681.24181,659.66922 680.96994,656.11654 680.375,652 C 679.62215,646.68663 678.17362,640.86392 677.15625,635.90625 C 676.16423,630.92411 675.0541,625.68981 674.4375,622.5625 C 673.83533,619.4112 673.5754,619.18175 673.53125,617.03125 C 673.48534,614.749 674.07377,611.61718 674.15625,609.34375 C 674.25319,607.04755 674.3264,605.39944 674.09375,603.53125 C 673.86441,601.64131 672.92599,600.5971 672.75,598.0625 C 672.58894,595.39634 672.99101,591.81406 673.09375,588.21875 C 673.19336,584.64697 673.27346,580.84725 673.34375,576.75 C 671.96744,577.30242 670.78538,579.13938 669.78125,582.25 C 668.76616,585.36169 667.87704,588.78315 667.34375,595.34375 C 666.91435,600.86617 666.85389,608.77352 666.75,616.71875 C 666.3499,612.80067 666.14163,607.98191 665.84375,604.03125 C 665.53799,600.05936 665.59149,597.5107 664.9375,593.375 C 664.28017,589.15166 662.99937,583.11971 661.96875,579.21875 C 660.95485,575.31618 659.95491,572.41214 658.90625,570.25 C 659.26665,573.13912 659.72521,576.76257 660.25,581.21875 C 660.78573,585.67383 661.49598,590.87796 662.0625,596.78125 C 662.63691,602.59579 663.45741,610.74317 663.59375,615.875 C 663.61,616.60994 663.57761,617.28339 663.5625,617.90625 C 662.73642,613.8294 661.87259,609.62862 661,605.75 C 659.19342,597.7699 657.34198,590.1351 655.25,582.46875 C 655.20767,583.79218 655.55603,588.1373 656.28125,595.71875 C 656.82001,601.30771 657.71035,610.67706 658.625,619.15625 C 657.65734,616.75202 656.9241,615.3431 656.4375,615.09375 C 656.19287,614.2276 656.40623,616.89409 657.09375,623.5 C 657.78666,630.10566 659.40233,645.83754 660.53125,654.21875 C 661.6662,662.49014 662.55759,667.11146 663.8125,672.96875 C 664.81707,677.49441 666.05076,681.07018 667.15625,685.21875 C 664.86901,680.7009 662.67645,676.917 660.5625,673.78125 C 661.55445,680.86823 662.86321,688.02991 664.59375,695.78125 C 665.35324,699.1616 666.17862,702.55153 667.0625,706 L 286.65625,706 C 287.04492,699.92213 287.32627,694.29101 287.5,689.09375 C 287.83319,679.39835 287.8009,671.6165 287.375,665.3125 C 286.216,670.51139 285.13905,675.83462 284.09375,681.34375 C 284.17255,677.70202 284.14185,673.57641 283.96875,668.78125 C 283.70673,661.69726 283.1166,652.2957 282.4375,644.1875 C 281.7436,636.03493 280.9571,628.22473 279.9375,620.34375 C 279.71381,621.64882 279.4475,625.98453 279.125,633.59375 C 278.99251,636.77433 278.8071,641.54183 278.625,646.3125 C 278.59208,645.94096 278.56365,645.51652 278.53125,645.15625 C 277.93946,638.26679 277.38375,634.53926 276.53125,629.71875 C 275.66665,624.80999 274.3321,619.38545 273.4375,616.25 C 272.5694,613.13841 271.92515,611.36463 271.40625,611.03125 C 271.38635,610.9205 271.36045,610.87378 271.34375,610.875 C 271.22634,610.88358 271.18295,613.65748 271.21875,619.46875 C 271.25206,624.25776 271.27045,633.80664 271.40625,641.9375 C 270.91784,639.70397 270.408,637.6657 269.8125,635.40625 C 268.5457,630.58557 266.7753,625.30091 265.625,622.25 C 264.50299,619.22068 263.70085,617.5394 263.15625,617.25 C 262.92454,616.38028 263.06725,619.04084 263.65625,625.65625 C 264.11585,630.77101 265.04755,641.33027 265.90625,649.75 C 265.75825,649.56181 265.61285,649.35863 265.46875,649.1875 C 263.89486,647.27424 262.2761,645.93891 260.5,645.0625 C 260.9402,646.62612 261.47225,648.57667 262.09375,651 C 262.73565,653.41853 263.6657,656.24122 264.25,659.5 C 264.85609,662.70366 265.74705,667.18905 265.59375,670.15625 C 265.40045,673.08262 263.84855,674.55697 263.28125,676.90625 C 262.78614,679.18925 262.6125,681.03004 262.5,683.875 C 262.36941,686.73633 262.3235,690.71742 262.5625,693.84375 C 262.8476,696.872 262.8043,699.16293 264.125,702.1875 C 264.67031,703.38468 265.4505,704.68218 266.34375,706 L 28,706 C 28.732207,703.82502 29.463657,701.6894 30.125,699.78125 C 31.7692,694.94442 32.98435,692.25467 34.28125,688.25 C 35.572449,684.24531 36.8525,680.68935 37.8125,675.875 C 38.745,670.9944 39.40765,665.52056 39.84375,659.21875 C 38.773251,660.68493 37.745,661.75842 36.625,662.65625 C 35.498998,663.53097 34.2248,664.36502 33.1875,664.34375 C 32.150101,664.21182 31.08495,661.88113 30.40625,662.1875 C 29.705449,662.53765 29.45775,664.53994 29.09375,666.3125 C 28.71865,667.99693 28.68765,670.72123 28.21875,672.40625 C 27.71645,674.02562 26.89185,675.20274 26.21875,676.1875 C 25.63555,677.05534 25.0661,677.64786 24.5,678.03125 C 24.6181,674.91943 24.6974,672.00064 24.75,669.53125 C 24.896201,661.35882 24.9569,657.05721 24.5625,650.25 C 25.2058,645.60905 25.8357,640.89001 26.125,636.875 C 26.5166,631.05399 26.2684,627.09332 26.125,621.6875 C 25.9483,616.12912 25.56085,609.19502 25.21875,604.25 C 24.88755,599.32625 24.5998,596.16143 24.125,592.375 C 23.606401,588.50224 22.6933,586.50193 22.3125,581.46875 C 21.9484,576.34801 21.96335,568.18662 21.96875,562.34375 C 21.957751,556.41333 22.1506,551.14234 22.25,546.65625 C 22.3382,542.17015 22.4228,538.5355 22.5,535.625 z"
         id="rect6153"
         style="fill:url(#linearGradient2891);fill-opacity:1;fill-rule:evenodd;stroke:none;stroke-width:2;stroke-linecap:round;stroke-linejoin:round;stroke-miterlimit:4;stroke-dasharray:none;stroke-dashoffset:0;stroke-opacity:1" />
      <path
         d="M 739.03125,681.78125 C 728.29875,681.80091 719.89724,685.02021 719.03125,685.625 C 708.47153,697.26333 711.70837,714.71043 712.15625,715.03125 C 712.71883,715.43424 716.15788,717.45499 720.375,719.84375 C 720.43328,721.56959 720.53126,723.28124 720.53125,723.28125 C 720.53125,723.28125 725.29885,730.47134 742.1875,736 C 757.04266,740.86299 776.09377,730.46877 776.09375,730.46875 L 781.46875,731.59375 L 786.5,728.5625 L 792.1875,715.875 L 793.03125,705.65625 L 792.84375,706.0625 C 792.57113,705.95409 790.14599,705.00705 789.59375,705.1875 C 789.01004,705.37825 786.625,707.6875 786.625,707.6875 L 780.4375,705.90625 L 780.3125,706.1875 C 779.05952,705.32221 778.08272,705.41849 777.125,705.59375 C 776.26,703.46355 772.2416,696.04146 771.6875,695.40625 C 771.06357,694.69097 763.57658,687.41947 754.625,684.28125 C 749.27979,682.41033 743.90966,681.77232 739.03125,681.78125 z"
         transform="matrix(1,0,0,0.568966,0,309.22805)"
         id="path7397"
         style="fill:#000000;fill-opacity:1;fill-rule:evenodd;stroke:none;stroke-width:1px;stroke-linecap:butt;stroke-linejoin:miter;stroke-opacity:1;filter:url(#filter7556)" />
      <g
         transform="matrix(-8.1871328e-2,0.2695512,-0.2695512,-8.1871328e-2,1133.7993,567.72515)"
         id="g7375">
        <path
           d="M 826.25,1088.1786 C 826.25,1088.1786 808.39286,1084.6071 806.07143,1085.1429 C 803.75,1085.6786 777.14286,1112.4643 775.35714,1115.3214 C 773.57143,1118.1786 756.60285,1151.1439 755.17858,1184.7857 C 752.48959,1249.0584 792.17924,1300.9225 796.46664,1304.2933 C 846.89032,1328.1532 902.76523,1299.1379 903.39286,1297.2857 C 905.40525,1291.347 924.28571,1211.2143 923.39286,1195.1429 C 922.85971,1185.5462 928.57143,1141.2143 874.10714,1083.8929 C 846.25001,1090.1428 826.96429,1088.8929 826.25,1088.1786 z"
           id="path7361"
           style="fill:#303030;fill-opacity:1;fill-rule:evenodd;stroke:none;stroke-width:1px;stroke-linecap:butt;stroke-linejoin:miter;stroke-opacity:1" />
        <path
           d="M 819.64286,1126.9286 L 857.85714,1126.9286 C 857.85714,1126.9286 867.5,1164.4286 866.25,1172.4643 C 858.75,1175.5 811.07143,1172.2857 811.07143,1172.2857 C 811.07143,1172.2857 814.82143,1136.0357 819.64286,1126.9286 z"
           id="path7335"
           style="fill:#5d5d5d;fill-opacity:1;fill-rule:evenodd;stroke:none;stroke-width:1px;stroke-linecap:butt;stroke-linejoin:miter;stroke-opacity:1" />
        <path
           d="M 870.89286,1125.6786 L 879.28572,1166.5714 C 879.28572,1166.5714 880,1170.8571 882.85714,1170.1429 C 885.71429,1169.4286 910.17857,1162.2857 910.35714,1161.2143 C 910.53572,1160.1429 910.35714,1158.5357 910.35714,1157.8214 C 910.35714,1157.1071 908.90457,1142.4254 891.25,1117.4643 C 880.13761,1116.3372 870.0927,1128.0791 870.89286,1125.6786 z"
           id="path7337"
           style="fill:#484848;fill-opacity:1;fill-rule:evenodd;stroke:none;stroke-width:1px;stroke-linecap:butt;stroke-linejoin:miter;stroke-opacity:1" />
        <path
           d="M 809.28572,1184.25 C 809.28572,1184.25 808.75,1233.8929 812.32143,1236.0357 C 815.89286,1238.1786 862.85714,1236.9286 863.57143,1236.2143 C 864.28572,1235.5 867.85714,1186.5714 867.32143,1185.1429 C 866.78572,1183.7143 831.07143,1189.6071 809.28572,1184.25 z"
           id="path7339"
           style="fill:#5d5d5d;fill-opacity:1;fill-rule:evenodd;stroke:none;stroke-width:1px;stroke-linecap:butt;stroke-linejoin:miter;stroke-opacity:1" />
        <path
           d="M 795.71429,1183 L 765.35714,1173.1786 C 765.35714,1173.1786 761.96429,1169.9643 761.60714,1175.5 C 761.25,1181.0357 762.5,1221.9286 762.5,1221.9286 C 762.5,1221.9286 764.28572,1227.4643 769.28572,1228.5357 C 774.28572,1229.6071 792.5,1234.7857 797.14286,1234.0714 C 797.50001,1227.6428 794.82143,1182.2857 794.82143,1182.2857 L 795.71429,1183 z"
           id="path7341"
           style="fill:#757575;fill-opacity:1;fill-rule:evenodd;stroke:none;stroke-width:1px;stroke-linecap:butt;stroke-linejoin:miter;stroke-opacity:1" />
        <path
           d="M 782.97919,1120.2907 C 782.97919,1120.2907 765.93286,1156.4037 766.43794,1157.035 C 766.94301,1157.6663 764.1651,1159.5604 768.83705,1161.8332 C 773.50901,1164.1061 792.57564,1169.5356 792.57564,1169.5356 C 792.57564,1169.5356 795.60609,1171.1771 796.74251,1167.6416 C 797.87894,1164.1061 807.22285,1126.6042 806.71777,1126.4779 C 806.2127,1126.3516 793.58579,1117.2602 782.97919,1120.2907 z"
           id="path7343"
           style="fill:#757575;fill-opacity:1;fill-rule:evenodd;stroke:none;stroke-width:1px;stroke-linecap:butt;stroke-linejoin:miter;stroke-opacity:1" />
        <path
           d="M 880.53572,1182.6429 L 877.32143,1232.1071 C 877.32143,1232.1071 879.10714,1234.6071 881.96429,1234.4286 C 884.82143,1234.25 911.25,1228.3571 912.14286,1227.2857 C 913.03572,1226.2143 917.5,1176.2143 915.53572,1172.4643 C 913.57143,1168.7143 885.89286,1184.25 880.53572,1182.6429 z"
           id="path7345"
           style="fill:#484848;fill-opacity:1;fill-rule:evenodd;stroke:none;stroke-width:1px;stroke-linecap:butt;stroke-linejoin:miter;stroke-opacity:1" />
        <path
           d="M 769.82143,1241.5714 C 769.82143,1241.5714 780.89286,1270.3214 783.03572,1271.5714 C 785.17857,1272.8214 805.89286,1280.6786 808.03572,1278.8929 C 810.17857,1277.1071 801.78572,1249.0714 800.53572,1248 C 799.28572,1246.9286 770,1242.1071 769.82143,1241.5714 z"
           id="path7347"
           style="fill:#757575;fill-opacity:1;fill-rule:evenodd;stroke:none;stroke-width:1px;stroke-linecap:butt;stroke-linejoin:miter;stroke-opacity:1" />
        <path
           d="M 814.82143,1250.5 L 820.35714,1279.4286 C 820.35714,1279.4286 822.67857,1281.5714 823.92857,1281.2143 C 825.17857,1280.8571 859.82143,1282.1071 861.96429,1280.3214 C 864.10714,1278.5357 863.21429,1252.1071 862.85714,1250.3214 C 862.5,1248.5357 816.07143,1249.25 814.82143,1250.5 z"
           id="path7349"
           style="fill:#5d5d5d;fill-opacity:1;fill-rule:evenodd;stroke:none;stroke-width:1px;stroke-linecap:butt;stroke-linejoin:miter;stroke-opacity:1" />
        <path
           d="M 875.17857,1247.1072 L 871.96428,1278.8929 C 871.96428,1278.8929 900.71429,1272.1072 903.92857,1268.8929 C 907.14286,1265.6786 910,1238.7143 910,1238.7143 L 875.17857,1247.1072 z"
           id="path7351"
           style="fill:#484848;fill-opacity:1;fill-rule:evenodd;stroke:none;stroke-width:1px;stroke-linecap:butt;stroke-linejoin:miter;stroke-opacity:1" />
        <path
           d="M 791.25,1284.875 C 791.25,1284.875 799.82143,1302.4643 801.96429,1302.4643 C 804.10714,1302.4643 813.21429,1306.125 813.92857,1305.2321 C 814.64286,1304.3393 811.51786,1289.9643 811.51786,1289.9643 C 811.51786,1289.9643 796.42857,1284.1607 791.25,1284.875 z"
           id="path7353"
           style="fill:#757575;fill-opacity:1;fill-rule:evenodd;stroke:none;stroke-width:1px;stroke-linecap:butt;stroke-linejoin:miter;stroke-opacity:1" />
        <path
           d="M 824.19643,1291.2143 C 824.19643,1291.2143 826.78572,1305.5893 829.19643,1306.3036 C 831.60714,1307.0179 854.73214,1308.0893 855.625,1307.0179 C 856.51786,1305.9464 859.10714,1292.1964 857.94643,1291.0357 C 856.78572,1289.875 829.64286,1287.0179 824.19643,1291.2143 z"
           id="path7355"
           style="fill:#5d5d5d;fill-opacity:1;fill-rule:evenodd;stroke:none;stroke-width:1px;stroke-linecap:butt;stroke-linejoin:miter;stroke-opacity:1" />
        <path
           d="M 869.28571,1288.9822 C 869.28571,1288.9822 864.64286,1303.5357 866.78572,1304.3393 C 868.92857,1305.1429 896.25,1295.1429 897.14286,1293.7143 C 898.03572,1292.2857 902.05358,1282.6429 900.71429,1281.5714 C 899.37501,1280.4999 869.82143,1288.9822 869.28571,1288.9822 z"
           id="path7357"
           style="fill:#484848;fill-opacity:1;fill-rule:evenodd;stroke:none;stroke-width:1px;stroke-linecap:butt;stroke-linejoin:miter;stroke-opacity:1" />
        <path
           d="M 807.98046,1091.8802 L 790.17652,1108.2951 L 813.78884,1118.1441 L 860.00332,1117.8916 L 885.88848,1106.6536 L 864.92781,1088.8497 C 864.92781,1088.8497 850.02806,1103.7495 807.98046,1091.8802 z"
           id="path7359"
           style="fill:#4b4b4b;fill-opacity:1;fill-rule:evenodd;stroke:none;stroke-width:1px;stroke-linecap:butt;stroke-linejoin:miter;stroke-opacity:1" />
        <path
           d="M 815.53572,1049.6071 L 814.82143,1078 L 861.07143,1081.5714 L 858.92857,1055.5 L 815.53572,1049.6071 z"
           id="path7373"
           style="fill:#191919;fill-opacity:1;fill-rule:evenodd;stroke:none;stroke-width:1px;stroke-linecap:butt;stroke-linejoin:miter;stroke-opacity:1" />
        <path
           d="M 805.41296,1069.6329 C 800.59394,1078.0602 802.22322,1082.3421 804.28629,1086.3451 C 804.28629,1086.3451 856.113,1095.5462 877.70746,1086.3451 C 881.46302,1075.0784 876.58079,1070.5718 876.58079,1070.5718 C 876.58079,1070.5718 839.9641,1083.3406 805.41296,1069.6329 z"
           id="path7363"
           style="fill:#2b2b2b;fill-opacity:1;fill-rule:evenodd;stroke:none;stroke-width:1.05155635px;stroke-linecap:butt;stroke-linejoin:miter;stroke-opacity:1" />
        <path
           d="M 789.77221,1031.8571 C 789.77221,1031.8571 788.83477,1042.5714 790.08469,1044.3571 C 791.33461,1046.1429 801.64639,1051.8571 801.64639,1051.8571 L 801.95886,1074.7143 L 818.20773,1076.5 L 818.83269,1051.6786 L 841.17489,1054 L 855.23641,1070.4285 L 856.64256,1082.2143 C 856.64256,1082.2143 891.3948,1118.7775 905.38918,1146.8571 C 919.4507,1175.0714 912.41994,1234 900.702,1267.9286 C 906.79533,1255.6071 926.49774,1214.045 918.66951,1177.0357 C 912.79472,1149.2616 903.20183,1121.4107 861.9547,1078.1965 C 859.61111,1068.6429 859.92359,1058.6429 859.92359,1058.6429 L 846.64326,1041.1429 L 789.77221,1031.8571 z"
           id="path7367"
           style="fill:#686868;fill-opacity:1;fill-rule:evenodd;stroke:none;stroke-width:1px;stroke-linecap:butt;stroke-linejoin:miter;stroke-opacity:1" />
        <path
           d="M 788.17857,1032.2143 L 823.64486,1024.5357 L 872.70395,1030.7857 L 888.17163,1044.7143 L 889.89025,1064.1786 C 889.89025,1064.1786 944.8287,1118.1701 943.63652,1173.6429 C 942.28113,1236.7093 922.76709,1260.2763 922.76709,1260.2763 C 922.76709,1260.2763 900.65045,1268.4113 899.40054,1267.697 C 898.15062,1266.9827 921.07361,1234.3698 918.89388,1193.2857 C 917.00289,1157.6439 893.36773,1109.9488 860.28294,1078.1964 C 858.56431,1067.9285 858.17372,1059.0893 858.17372,1059.0893 L 844.58091,1040.7857 L 788.17857,1032.2143 z"
           id="path7371"
           style="fill:#434343;fill-opacity:1;fill-rule:evenodd;stroke:none;stroke-width:1px;stroke-linecap:butt;stroke-linejoin:miter;stroke-opacity:1" />
      </g>
      <path
         d="M 663.35258,719.43749 C 655.48977,719.43749 649.10714,722.49124 649.10714,726.25755 C 649.10714,730.02386 655.48977,733.08101 663.35258,733.08101 C 671.21539,733.08099 677.59525,730.02386 677.59525,726.25755 C 677.59525,725.65449 677.43182,725.07053 677.12477,724.51351 L 689.83905,722.63036 L 689.51611,720.99152 L 675.87477,723.00699 C 673.46196,720.88032 668.75827,719.43749 663.35258,719.43749 z M 664.06806,720.80151 C 670.2656,720.80149 675.29294,723.00812 675.29294,725.72823 C 675.29294,728.44836 670.2656,730.65496 664.06806,730.65496 C 657.87052,730.65496 652.84042,728.44836 652.84042,725.72823 C 652.84042,723.00812 657.87052,720.80151 664.06806,720.80151 z"
         id="path7648"
         style="fill:#000000;fill-opacity:1;fill-rule:evenodd;stroke:none;stroke-width:2;stroke-linecap:round;stroke-linejoin:round;stroke-miterlimit:4;stroke-dasharray:none;stroke-dashoffset:0;stroke-opacity:1;filter:url(#filter7738)" />
      <path
         d="M 662.45972,718.77678 C 654.59691,718.77678 648.21428,721.83053 648.21428,725.59684 C 648.21428,729.36315 654.59691,732.4203 662.45972,732.4203 C 670.32253,732.42028 676.70239,729.36315 676.70239,725.59684 C 676.70239,724.99378 676.53896,724.40982 676.23191,723.8528 L 688.94619,721.96965 L 688.62325,720.33081 L 674.98191,722.34628 C 672.5691,720.21961 667.86541,718.77678 662.45972,718.77678 z M 663.1752,720.1408 C 669.37274,720.14078 674.40008,722.34741 674.40008,725.06752 C 674.40008,727.78765 669.37274,729.99425 663.1752,729.99425 C 656.97766,729.99425 651.94756,727.78765 651.94756,725.06752 C 651.94756,722.34741 656.97766,720.1408 663.1752,720.1408 z"
         id="path7639"
         style="fill:#7d7d7d;fill-opacity:1;fill-rule:evenodd;stroke:none;stroke-width:2;stroke-linecap:round;stroke-linejoin:round;stroke-miterlimit:4;stroke-dasharray:none;stroke-dashoffset:0;stroke-opacity:1" />
    </g>
  </g>
</svg>
