<?xml version="1.0" encoding="UTF-8" standalone="no"?>
<!-- Created with Inkscape (http://www.inkscape.org/) -->
<svg
   xmlns:svg="http://www.w3.org/2000/svg"
   xmlns="http://www.w3.org/2000/svg"
   version="1.0"
   width="27.103832"
   height="27.103832"
   id="svg13996">
  <defs
     id="defs13998" />
  <g
     transform="translate(-295.01951,-407.38169)"
     id="layer1">
    <rect
       width="23.885832"
       height="23.885832"
       x="296.62851"
       y="408.99069"
       id="rect11326"
       style="opacity:1;fill:#ffffff;fill-opacity:0.78431373;fill-rule:evenodd;stroke:#000000;stroke-width:3.21799994;stroke-linecap:round;stroke-linejoin:round;stroke-miterlimit:4;stroke-dasharray:none;stroke-dashoffset:0;stroke-opacity:0.78431373" />
    <path
       d="M 303.41249,414.41407 L 301.34324,415.71798 C 302.00039,416.30415 302.55513,416.97988 303.12903,417.6455 C 303.72649,418.32242 304.35984,418.97356 304.91482,419.6864 C 305.45789,420.34726 306.00229,420.98981 306.58722,421.61392 C 306.57822,421.62118 306.56768,421.63518 306.55887,421.64227 C 305.23653,422.734 304.01292,423.93082 302.78888,425.12881 C 302.22237,425.70478 302.48181,425.41992 301.99519,425.97918 L 304.17782,425.07211 C 304.63917,424.5417 304.37993,424.80632 304.91482,424.25008 C 305.62636,423.53304 306.35497,422.83735 307.09745,422.15249 C 307.72206,422.79131 308.35158,423.43334 308.99662,424.05166 C 309.50068,424.59044 310.0166,425.13477 310.52729,425.66738 C 311.09755,426.26064 311.64098,426.84904 312.1997,427.45317 L 314.2406,426.23429 C 313.64916,425.65763 313.0769,425.05042 312.5115,424.44851 C 312.08347,423.98758 312.21559,424.1263 311.8312,423.65482 C 311.69028,423.48197 311.55541,423.31018 311.40602,423.1446 C 311.29416,423.02061 311.14307,422.90649 311.03752,422.7761 C 310.28162,422.14014 309.57942,421.46338 308.88323,420.76354 C 308.85632,420.7342 308.82495,420.708 308.7982,420.67851 C 310.12493,419.62157 311.50644,418.61456 312.93669,417.70219 C 313.12504,417.57974 313.07445,417.60825 313.1918,417.53212 C 313.17744,417.53789 313.11963,417.5544 313.10677,417.56046 C 313.45757,417.35975 313.49896,417.33287 313.1918,417.53212 C 313.25362,417.50731 313.3212,417.50594 313.5603,417.41873 C 313.6757,417.37665 313.78513,417.31928 313.90045,417.27701 L 315.79962,415.77468 C 315.54064,415.90628 315.2707,415.99765 315.00594,416.11483 C 314.73448,416.23496 314.2319,416.48255 313.98549,416.62505 C 311.41408,418.11205 312.1977,417.61221 310.81075,418.55257 C 310.58081,418.69953 310.35625,418.82444 310.13045,418.97776 C 309.89252,419.13931 309.65707,419.3226 309.42181,419.48798 C 309.05657,419.74473 308.73343,419.96322 308.40135,420.19663 C 307.90948,419.62689 307.43627,419.04707 306.95572,418.46753 C 306.69159,418.142 306.41813,417.81168 306.13369,417.50377 C 305.80507,417.14804 305.44588,416.80587 305.14158,416.42663 C 304.57526,415.74481 303.99528,415.08092 303.41249,414.41407 z"
       id="path11332"
       style="opacity:1;fill:#bea93a;fill-opacity:0.78431373;fill-rule:evenodd;stroke:#000000;stroke-width:2.91894221;stroke-linecap:round;stroke-linejoin:round;stroke-miterlimit:4;stroke-dasharray:none;stroke-dashoffset:0;stroke-opacity:0.78431373" />
  </g>
</svg>
